<svg width="131" height="95" viewBox="0 0 131 95" fill="none" xmlns="http://www.w3.org/2000/svg">
<g clip-path="url(#clip0_1_915)">
<path d="M36.4972 47.3101C36.4945 45.6781 36.8135 44.0615 37.4362 42.553C38.0588 41.0444 38.9728 39.6734 40.1258 38.5184C41.2788 37.3634 42.6483 36.4471 44.1558 35.8219C45.6633 35.1967 47.2793 34.8749 48.9113 34.8749H48.8411C50.4731 34.8749 52.0891 35.1967 53.5966 35.8219C55.1041 36.4471 56.4736 37.3634 57.6266 38.5184C58.7796 39.6734 59.6936 41.0444 60.3162 42.553C60.9389 44.0615 61.2579 45.6781 61.2551 47.3101C61.2551 50.6025 59.9472 53.7601 57.6191 56.0882C55.291 58.4163 52.1335 59.7242 48.8411 59.7242H48.9113C45.6189 59.7242 42.4613 58.4163 40.1332 56.0882C37.8052 53.7601 36.4972 50.6025 36.4972 47.3101ZM94.5771 25.2992H117.691C120.983 25.2992 124.141 23.9913 126.469 21.6632C128.797 19.3351 130.105 16.1775 130.105 12.8851C130.108 11.2531 129.789 9.63655 129.166 8.12797C128.544 6.61939 127.63 5.24838 126.477 4.0934C125.324 2.93841 123.954 2.02211 122.447 1.39693C120.939 0.771745 119.323 0.449949 117.691 0.449951L94.5771 0.449951C92.9451 0.449949 91.3291 0.771745 89.8216 1.39693C88.3141 2.02211 86.9446 2.93841 85.7916 4.0934C84.6386 5.24838 83.7246 6.61939 83.102 8.12797C82.4793 9.63655 82.1603 11.2531 82.163 12.8851C82.163 16.1775 83.471 19.3351 85.799 21.6632C88.1271 23.9913 91.2847 25.2992 94.5771 25.2992ZM15.1889 94.1491H60.0819C63.3743 94.1491 66.5319 92.8412 68.86 90.5132C71.188 88.1851 72.4959 85.0275 72.4959 81.7351C72.4987 80.1031 72.1797 78.4865 71.557 76.9779C70.9344 75.4694 70.0204 74.0984 68.8674 72.9434C67.7144 71.7884 66.3449 70.8721 64.8374 70.2469C63.3299 69.6217 61.7139 69.2999 60.0819 69.2999H15.1889C13.5569 69.2999 11.9409 69.6217 10.4333 70.2469C8.92583 70.8721 7.55637 71.7884 6.40334 72.9434C5.25031 74.0984 4.33634 75.4694 3.71371 76.9779C3.09109 78.4865 2.77203 80.1031 2.77481 81.7351C2.77481 85.0275 4.08271 88.1851 6.4108 90.5132C8.73889 92.8412 11.8965 94.1491 15.1889 94.1491ZM74.1469 59.7242H78.5379L88.7951 34.8749H82.9288L76.6761 51.1741H76.6059L70.4586 34.8749H64.2058L74.1469 59.7242ZM96.9447 59.7242H102.425V34.8749H96.9447V59.7242ZM112.541 59.7242H130.07V54.6869H118.021V49.6285H128.805V44.5701H118.021V39.9333H129.438V34.8749H112.576L112.541 59.7242ZM7.72076 25.3202H13.2007V5.29755H20.2964V0.449951H0.625V5.29755H7.72076V25.3202ZM28.0245 25.3202H33.5044V14.5712H44.1129V25.3202H49.5928V0.449951H44.1129V9.72362H33.4692V0.449951H28.0245V25.3202ZM57.0047 25.3202H74.5685V20.2619H62.4495V15.2035H73.2336V10.1452H62.4495V5.50832H73.8659V0.449951H57.0047V25.3202ZM1.50319 59.7452H6.94796V40.671H7.01821L13.3412 59.7452H17.4862L24.0199 40.671H24.0902V59.7452H29.5701V34.8749H21.3151L15.5542 51.1039H15.4839L9.75816 34.8749H1.46806L1.50319 59.7452ZM80.2521 94.1702H89.1464C90.9481 94.1795 92.7402 93.9069 94.4577 93.3623C96.0785 92.8561 97.5912 92.0533 98.9189 90.9947C100.21 89.944 101.257 88.6257 101.989 87.1307C102.8 85.4735 103.214 83.6502 103.197 81.8053C103.255 79.8083 102.851 77.8249 102.017 76.0093C101.285 74.479 100.196 73.1466 98.8416 72.1242C97.4235 71.1076 95.8156 70.3861 94.1134 70.0025C92.2591 69.5392 90.3552 69.3033 88.4439 69.2999H80.217L80.2521 94.1702ZM85.739 74.3583H88.9708C90.0791 74.3543 91.1828 74.5009 92.2517 74.7939C93.2344 75.0612 94.1588 75.5091 94.9776 76.1147C95.7556 76.707 96.3857 77.4718 96.8183 78.3488C97.3009 79.3366 97.5417 80.4251 97.5208 81.5243C97.5509 82.7511 97.3111 83.9695 96.8183 85.0933C96.3982 86.0195 95.7534 86.8261 94.9425 87.4398C94.1031 88.0554 93.1468 88.4929 92.1322 88.7255C90.9804 88.9908 89.8015 89.1205 88.6195 89.1119H85.7039L85.739 74.3583ZM111.129 94.1702H121.316C122.433 94.1677 123.547 94.05 124.639 93.8189C125.698 93.6077 126.713 93.2156 127.639 92.6597C128.518 92.1351 129.264 91.4137 129.817 90.5521C130.409 89.5604 130.702 88.4185 130.66 87.2642C130.666 86.4977 130.535 85.7364 130.274 85.016C130.031 84.3357 129.656 83.7101 129.171 83.1753C128.682 82.6398 128.098 82.1991 127.449 81.8756C126.749 81.5181 125.994 81.2806 125.215 81.173V81.1028C126.422 80.7558 127.503 80.0679 128.328 79.1216C129.136 78.1337 129.553 76.8839 129.501 75.6088C129.557 74.4643 129.276 73.3285 128.693 72.342C128.17 71.5297 127.443 70.8685 126.585 70.424C125.668 69.9553 124.677 69.6464 123.656 69.5107C122.578 69.3627 121.491 69.2876 120.403 69.2859H111.129V94.1702ZM116.609 73.9368H120.333C120.769 73.9391 121.203 73.9791 121.632 74.0562C122.049 74.1288 122.452 74.2663 122.827 74.4637C123.178 74.6506 123.475 74.9238 123.691 75.2576C123.926 75.6414 124.041 76.0866 124.021 76.5362C124.033 76.9761 123.932 77.4118 123.726 77.8008C123.536 78.1437 123.263 78.4336 122.932 78.6439C122.595 78.8607 122.221 79.0154 121.829 79.1005C121.419 79.1931 120.999 79.2402 120.579 79.241H116.546L116.609 73.9368ZM116.609 83.8779H120.754C121.236 83.8803 121.717 83.9155 122.194 83.9832C122.678 84.0492 123.15 84.1791 123.599 84.3696C124.032 84.547 124.414 84.8296 124.71 85.1916C125.012 85.5961 125.166 86.0922 125.145 86.5967C125.163 87.075 125.049 87.549 124.815 87.9667C124.6 88.3325 124.304 88.6448 123.951 88.88C123.595 89.1172 123.196 89.2841 122.778 89.3718C122.355 89.4629 121.924 89.51 121.492 89.5123H116.574L116.609 83.8779Z" fill="url(#paint0_linear_1_915)"/>
</g>
<defs>
<linearGradient id="paint0_linear_1_915" x1="0.625" y1="47.3101" x2="130.625" y2="47.3101" gradientUnits="userSpaceOnUse">
<stop stop-color="#90CEA1"/>
<stop offset="0.56" stop-color="#3CBEC9"/>
<stop offset="1" stop-color="#00B3E5"/>
</linearGradient>
<clipPath id="clip0_1_915">
<rect width="130" height="93.7203" fill="white" transform="translate(0.625 0.449951)"/>
</clipPath>
</defs>
</svg>
