<svg width="154" height="21" viewBox="0 0 154 21" fill="none" xmlns="http://www.w3.org/2000/svg">
<g clip-path="url(#clip0_1_928)">
<path d="M108.047 20.4155H144.027C145.334 20.4155 146.627 20.1582 147.834 19.6582C149.042 19.1582 150.138 18.4253 151.062 17.5014C151.986 16.5776 152.719 15.4808 153.219 14.2737C153.719 13.0666 153.976 11.7728 153.976 10.4662C153.979 9.15823 153.723 7.86264 153.224 6.65359C152.725 5.44453 151.992 4.34573 151.068 3.42006C150.144 2.49439 149.047 1.76002 147.838 1.25896C146.63 0.757904 145.335 0.499998 144.027 0.5L108.047 0.5C106.739 0.499998 105.444 0.757904 104.236 1.25896C103.028 1.76002 101.93 2.49439 101.006 3.42006C100.082 4.34573 99.3495 5.44453 98.8505 6.65359C98.3515 7.86264 98.0957 9.15823 98.098 10.4662C98.098 13.1049 99.1462 15.6356 101.012 17.5014C102.878 19.3673 105.409 20.4155 108.047 20.4155ZM5.71059 20.4437H10.1025V4.3964H15.7894V0.5H0.0236511V4.38513H5.71059V20.4437ZM21.5327 20.4437H25.9246V5.14527H25.9809L31.0203 20.4324H34.3986L39.607 5.14527H39.6633V20.4324H44.0552V0.5H37.4392L32.8221 13.5068H32.7658L28.1768 0.5H21.5327V20.4437ZM50.2151 0.567568H56.8029C58.3367 0.569925 59.8644 0.759004 61.3525 1.13063C62.7076 1.45211 63.9846 2.04179 65.1081 2.86486C66.1947 3.68191 67.0695 4.74779 67.6588 5.97297C68.325 7.42857 68.6468 9.01814 68.5991 10.6182C68.6296 12.0924 68.3173 13.5534 67.6869 14.8863C67.0999 16.0857 66.2583 17.1425 65.2207 17.9831C64.1587 18.8346 62.9457 19.4784 61.6453 19.8806C60.2707 20.3171 58.8363 20.5356 57.3941 20.5282H50.2151V0.567568ZM54.607 16.4459H56.8592C57.8065 16.4524 58.7513 16.3485 59.6745 16.1363C60.4983 15.9691 61.2774 15.6294 61.9606 15.1396C62.6127 14.6462 63.1313 13.9979 63.4696 13.2534C63.8649 12.3528 64.0572 11.3762 64.0327 10.393C64.0494 9.51203 63.8564 8.63969 63.4696 7.84797C63.1184 7.14637 62.612 6.53402 61.9887 6.05743C61.341 5.57639 60.6099 5.2194 59.8322 5.0045C58.9745 4.76468 58.0876 4.64529 57.1971 4.64977H54.607V16.4459ZM74.9617 0.567568H82.3941C83.2664 0.567993 84.1376 0.630085 85.0011 0.753378C85.8203 0.859494 86.6148 1.10717 87.3491 1.48536C88.0351 1.84129 88.6171 2.36896 89.0383 3.01689C89.5055 3.80754 89.7306 4.71785 89.6858 5.63513C89.7244 6.65659 89.3902 7.65721 88.7455 8.45045C88.0875 9.21259 87.2201 9.76471 86.2511 10.0383V10.0721C86.8746 10.1611 87.4794 10.3513 88.0417 10.6351C88.5609 10.8959 89.0283 11.2488 89.4212 11.6768C89.8103 12.1054 90.1107 12.6068 90.3052 13.152C90.5149 13.7294 90.6198 14.3396 90.6149 14.9538C90.6486 15.879 90.414 16.7942 89.9392 17.589C89.4975 18.2808 88.8996 18.8593 88.1937 19.2782C87.4516 19.7236 86.6383 20.0379 85.7894 20.2072C84.9141 20.3949 84.0213 20.4893 83.1261 20.4887H74.9617V0.567568ZM79.3536 8.53491H82.5349C82.8722 8.53675 83.2086 8.49895 83.5372 8.4223C83.8513 8.35407 84.1507 8.23012 84.4212 8.05631C84.685 7.88615 84.9034 7.65422 85.0574 7.38063C85.2224 7.06886 85.3039 6.7197 85.2939 6.36712C85.312 6.00877 85.226 5.65285 85.0462 5.34234C84.8714 5.07628 84.6335 4.85767 84.3536 4.70608C84.0398 4.54855 83.7037 4.44029 83.357 4.38513C83.0137 4.31876 82.6649 4.28482 82.3153 4.28378H79.3311L79.3536 8.53491ZM79.3536 16.7838H83.295C83.6416 16.7847 83.9872 16.7469 84.3254 16.6712C84.6616 16.6024 84.981 16.4685 85.2658 16.277C85.5498 16.0895 85.7868 15.8391 85.9583 15.545C86.1433 15.2094 86.2347 14.8302 86.223 14.4471C86.238 14.0429 86.1148 13.6457 85.8739 13.3209C85.6374 13.0287 85.3316 12.8003 84.9842 12.6565C84.6234 12.5062 84.245 12.4022 83.8581 12.3468C83.4757 12.2925 83.0901 12.2643 82.7038 12.2624H79.3818L79.3536 16.7838Z" fill="url(#paint0_linear_1_928)"/>
</g>
<defs>
<linearGradient id="paint0_linear_1_928" x1="0.0236511" y1="10.5" x2="153.976" y2="10.5" gradientUnits="userSpaceOnUse">
<stop stop-color="#90CEA1"/>
<stop offset="0.56" stop-color="#3CBEC9"/>
<stop offset="1" stop-color="#00B3E5"/>
</linearGradient>
<clipPath id="clip0_1_928">
<rect width="153.953" height="20" fill="white" transform="translate(0.0236511 0.5)"/>
</clipPath>
</defs>
</svg>
